<svg width="20" height="18" viewBox="0 0 20 18" fill="none" xmlns="http://www.w3.org/2000/svg">
<path d="M4.42578 2.00002C4.42552 2.53046 4.21455 3.03906 3.83929 3.41394C3.46403 3.78883 2.95521 3.99929 2.42478 3.99902C1.89435 3.99876 1.38575 3.78779 1.01086 3.41253C0.635975 3.03727 0.425516 2.52846 0.425782 1.99802C0.426047 1.46759 0.637015 0.958988 1.01227 0.584103C1.38754 0.209218 1.89635 -0.00124153 2.42678 -0.000976312C2.95721 -0.000711096 3.46582 0.210257 3.8407 0.585517C4.21559 0.960777 4.42605 1.46959 4.42578 2.00002ZM4.48578 5.48002H0.485781V18H4.48578V5.48002ZM10.8058 5.48002H6.82578V18H10.7658V11.43C10.7658 7.77002 15.5358 7.43002 15.5358 11.43V18H19.4858V10.07C19.4858 3.90002 12.4258 4.13002 10.7658 7.16002L10.8058 5.48002Z" fill="#F15F22"/>
</svg>
