<svg width="20" height="19" viewBox="0 0 20 19" fill="none" xmlns="http://www.w3.org/2000/svg">
<path d="M4.94043 2.91506C4.94017 3.4455 4.7292 3.9541 4.35394 4.32898C3.97868 4.70387 3.46986 4.91433 2.93943 4.91406C2.409 4.9138 1.90039 4.70283 1.52551 4.32757C1.15062 3.95231 0.940165 3.4435 0.94043 2.91306C0.940695 2.38263 1.15166 1.87403 1.52692 1.49914C1.90218 1.12426 2.411 0.913798 2.94143 0.914063C3.47186 0.914328 3.98047 1.1253 4.35535 1.50056C4.73024 1.87582 4.9407 2.38463 4.94043 2.91506ZM5.00043 6.39506H1.00043V18.9151H5.00043V6.39506ZM11.3204 6.39506H7.34043V18.9151H11.2804V12.3451C11.2804 8.68506 16.0504 8.34506 16.0504 12.3451V18.9151H20.0004V10.9851C20.0004 4.81506 12.9404 5.04506 11.2804 8.07506L11.3204 6.39506Z" fill="white"/>
</svg>
