<svg width="21" height="21" viewBox="0 0 21 21" fill="none" xmlns="http://www.w3.org/2000/svg">
<path d="M10.4854 0.915039C13.2024 0.915039 13.5414 0.925039 14.6074 0.975039C15.6724 1.02504 16.3974 1.19204 17.0354 1.44004C17.6954 1.69404 18.2514 2.03804 18.8074 2.59304C19.3158 3.09294 19.7093 3.69763 19.9604 4.36504C20.2074 5.00204 20.3754 5.72804 20.4254 6.79304C20.4724 7.85904 20.4854 8.19804 20.4854 10.915C20.4854 13.632 20.4754 13.971 20.4254 15.037C20.3754 16.102 20.2074 16.827 19.9604 17.465C19.71 18.1328 19.3165 18.7377 18.8074 19.237C18.3073 19.7454 17.7027 20.1388 17.0354 20.39C16.3984 20.637 15.6724 20.805 14.6074 20.855C13.5414 20.902 13.2024 20.915 10.4854 20.915C7.76835 20.915 7.42935 20.905 6.36335 20.855C5.29835 20.805 4.57335 20.637 3.93535 20.39C3.26768 20.1395 2.66288 19.746 2.16335 19.237C1.65476 18.7372 1.26128 18.1325 1.01035 17.465C0.762352 16.828 0.595352 16.102 0.545352 15.037C0.498352 13.971 0.485352 13.632 0.485352 10.915C0.485352 8.19804 0.495352 7.85904 0.545352 6.79304C0.595352 5.72704 0.762352 5.00304 1.01035 4.36504C1.26059 3.69722 1.65416 3.09236 2.16335 2.59304C2.66302 2.08427 3.26778 1.69077 3.93535 1.44004C4.57335 1.19204 5.29735 1.02504 6.36335 0.975039C7.42935 0.928039 7.76835 0.915039 10.4854 0.915039ZM10.4854 5.91504C9.15927 5.91504 7.8875 6.44182 6.94982 7.37951C6.01214 8.31719 5.48535 9.58896 5.48535 10.915C5.48535 12.2411 6.01214 13.5129 6.94982 14.4506C7.8875 15.3883 9.15927 15.915 10.4854 15.915C11.8114 15.915 13.0832 15.3883 14.0209 14.4506C14.9586 13.5129 15.4854 12.2411 15.4854 10.915C15.4854 9.58896 14.9586 8.31719 14.0209 7.37951C13.0832 6.44182 11.8114 5.91504 10.4854 5.91504ZM16.9854 5.66504C16.9854 5.33352 16.8537 5.01558 16.6192 4.78116C16.3848 4.54674 16.0669 4.41504 15.7354 4.41504C15.4038 4.41504 15.0859 4.54674 14.8515 4.78116C14.617 5.01558 14.4854 5.33352 14.4854 5.66504C14.4854 5.99656 14.617 6.3145 14.8515 6.54892C15.0859 6.78334 15.4038 6.91504 15.7354 6.91504C16.0669 6.91504 16.3848 6.78334 16.6192 6.54892C16.8537 6.3145 16.9854 5.99656 16.9854 5.66504ZM10.4854 7.91504C11.281 7.91504 12.0441 8.23111 12.6067 8.79372C13.1693 9.35633 13.4854 10.1194 13.4854 10.915C13.4854 11.7107 13.1693 12.4738 12.6067 13.0364C12.0441 13.599 11.281 13.915 10.4854 13.915C9.6897 13.915 8.92664 13.599 8.36403 13.0364C7.80142 12.4738 7.48535 11.7107 7.48535 10.915C7.48535 10.1194 7.80142 9.35633 8.36403 8.79372C8.92664 8.23111 9.6897 7.91504 10.4854 7.91504Z" fill="white"/>
</svg>
