<svg width="48" height="48" viewBox="0 0 48 48" fill="none" xmlns="http://www.w3.org/2000/svg">
<path d="M23.6784 0.00213826C18.932 0.0657692 14.3111 1.53523 10.4001 4.22509C6.48898 6.91494 3.46328 10.7043 1.70574 15.1138C-0.0517946 19.5232 -0.462333 24.3547 0.526069 28.9975C1.51447 33.6402 3.85742 37.8855 7.25861 41.1967C10.6598 44.5078 14.9666 46.736 19.6341 47.5995C24.3017 48.463 29.1204 47.9232 33.4811 46.048C37.8417 44.1728 41.5484 41.0466 44.1323 37.0648C46.7163 33.0829 48.0615 28.4244 47.9978 23.678C47.912 17.3136 45.3016 11.2439 40.7409 6.8039C36.1802 2.36392 30.0428 -0.0827678 23.6784 0.00213826V0.00213826Z" fill="#F15F22"/>
<path d="M20.7463 37.3684C20.3349 37.3687 19.9291 37.2736 19.5606 37.0906C19.1922 36.9076 18.8711 36.6418 18.6227 36.3138L11.7971 27.2999C11.5861 27.0208 11.432 26.7031 11.3438 26.3645C11.2556 26.0259 11.235 25.673 11.2831 25.3264C11.3312 24.9798 11.4469 24.6463 11.624 24.3445C11.8011 24.0427 12.0359 23.7784 12.315 23.5674C12.5941 23.3563 12.912 23.2024 13.2506 23.1142C13.5892 23.026 13.9419 23.0054 14.2885 23.0535C14.6351 23.1016 14.9686 23.2174 15.2704 23.3944C15.5722 23.5715 15.8363 23.8064 16.0473 24.0854L20.537 30.0121L31.827 11.8839C32.0119 11.5872 32.2534 11.3298 32.5378 11.1264C32.8222 10.923 33.1438 10.7774 33.4844 10.6983C33.825 10.6192 34.1779 10.608 34.5228 10.6652C34.8678 10.7225 35.198 10.8473 35.4948 11.0323C35.7915 11.2172 36.0489 11.4589 36.2523 11.7433C36.4557 12.0277 36.6011 12.3493 36.6802 12.6898C36.7593 13.0304 36.7706 13.3834 36.7133 13.7283C36.656 14.0732 36.5314 14.4035 36.3464 14.7002L23.0099 36.109C22.7825 36.4769 22.4689 36.7839 22.0962 37.0033C21.7234 37.2228 21.3027 37.3481 20.8706 37.3684H20.7463Z" fill="white"/>
</svg>
