<svg width="24" height="24" viewBox="0 0 24 24" fill="none" xmlns="http://www.w3.org/2000/svg">
<path d="M11.8392 0.00106913C9.46601 0.0328846 7.15557 0.767617 5.20003 2.11254C3.24449 3.45747 1.73164 5.35216 0.852872 7.55688C-0.0258973 9.76159 -0.231166 12.1774 0.263034 14.4987C0.757235 16.8201 1.92871 18.9427 3.62931 20.5983C5.3299 22.2539 7.48329 23.368 9.81707 23.7997C12.1509 24.2315 14.5602 23.9616 16.7405 23.024C18.9209 22.0864 20.7742 20.5233 22.0662 18.5324C23.3581 16.5415 24.0308 14.2122 23.9989 11.839C23.956 8.65679 22.6508 5.62194 20.3704 3.40195C18.0901 1.18196 15.0214 -0.0413839 11.8392 0.00106913V0.00106913Z" fill="#F15F22"/>
<path d="M10.3731 18.6842C10.1674 18.6843 9.96454 18.6368 9.78031 18.5453C9.59609 18.4538 9.43554 18.3209 9.31134 18.1569L5.89857 13.65C5.79304 13.5104 5.71602 13.3515 5.67192 13.1822C5.62781 13.0129 5.61751 12.8365 5.64155 12.6632C5.6656 12.4899 5.72347 12.3231 5.812 12.1722C5.90053 12.0213 6.01797 11.8892 6.15751 11.7837C6.29704 11.6781 6.45602 11.6012 6.62532 11.5571C6.79462 11.513 6.97096 11.5027 7.14425 11.5268C7.31754 11.5508 7.48432 11.6087 7.63522 11.6972C7.78612 11.7857 7.91814 11.9032 8.02367 12.0427L10.2685 15.006L15.9135 5.94196C16.006 5.79358 16.1267 5.66491 16.2689 5.56321C16.4111 5.46151 16.5719 5.38868 16.7422 5.34914C16.9125 5.3096 17.089 5.30398 17.2614 5.33261C17.4339 5.36125 17.599 5.42367 17.7474 5.51613C17.8958 5.60859 18.0244 5.72943 18.1261 5.87163C18.2278 6.01383 18.3006 6.17463 18.3401 6.34492C18.3797 6.51522 18.3853 6.69168 18.3566 6.86415C18.328 7.03661 18.2657 7.20175 18.1732 7.35012L11.505 18.0545C11.3912 18.2385 11.2345 18.3919 11.0481 18.5017C10.8617 18.6114 10.6513 18.6741 10.4353 18.6842H10.3731Z" fill="white"/>
</svg>
