<svg width="21" height="18" viewBox="0 0 21 18" fill="none" xmlns="http://www.w3.org/2000/svg">
<path opacity="0.8" d="M20.2719 3.53446L17.4407 6.35634C16.8782 12.9095 11.3469 18.0001 4.73755 18.0001C3.37818 18.0001 2.25318 17.7845 1.40005 17.3626C0.71568 17.0157 0.434429 16.6501 0.359429 16.5376C0.297376 16.4433 0.25739 16.3363 0.242451 16.2244C0.227513 16.1126 0.238005 15.9988 0.273149 15.8916C0.308292 15.7844 0.36718 15.6864 0.445424 15.6051C0.523669 15.5238 0.619252 15.4612 0.725055 15.422C0.743805 15.4126 2.9563 14.5688 4.39068 12.947C3.50112 12.3136 2.71926 11.5412 2.07505 10.6595C0.790679 8.91571 -0.568696 5.88759 0.246929 1.36884C0.272569 1.2345 0.334013 1.10958 0.424771 1.00727C0.515529 0.904962 0.632232 0.829062 0.762554 0.787588C0.893292 0.744779 1.03329 0.738753 1.16722 0.770169C1.30115 0.801586 1.42386 0.869234 1.52193 0.965713C1.55005 1.00321 4.67193 4.07821 8.48755 5.07196V4.50009C8.49124 3.90544 8.61201 3.31735 8.84298 2.76938C9.07395 2.22141 9.41058 1.7243 9.83367 1.30643C10.2568 0.888566 10.758 0.558127 11.3088 0.333984C11.8596 0.109841 12.4492 -0.00361702 13.0438 8.7893e-05C13.8243 0.011219 14.5885 0.224321 15.2621 0.618632C15.9358 1.01294 16.4957 1.57502 16.8876 2.25009H19.7376C19.8856 2.24962 20.0305 2.293 20.154 2.37475C20.2774 2.4565 20.3739 2.57296 20.4313 2.70946C20.4853 2.848 20.499 2.999 20.4708 3.145C20.4426 3.29099 20.3737 3.42602 20.2719 3.53446Z" fill="#F15F22"/>
</svg>
