<svg width="21" height="19" viewBox="0 0 21 19" fill="none" xmlns="http://www.w3.org/2000/svg">
<path d="M20.2719 4.4495L17.4407 7.27138C16.8782 13.8245 11.3469 18.9151 4.73755 18.9151C3.37818 18.9151 2.25318 18.6995 1.40005 18.2776C0.71568 17.9308 0.434429 17.5651 0.359429 17.4526C0.297376 17.3584 0.25739 17.2513 0.242451 17.1395C0.227513 17.0276 0.238005 16.9139 0.273149 16.8066C0.308292 16.6994 0.36718 16.6015 0.445424 16.5202C0.523669 16.4388 0.619252 16.3762 0.725055 16.337C0.743805 16.3276 2.9563 15.4839 4.39068 13.862C3.50112 13.2286 2.71926 12.4563 2.07505 11.5745C0.790679 9.83075 -0.568696 6.80263 0.246929 2.28388C0.272569 2.14954 0.334013 2.02462 0.424771 1.92231C0.515529 1.82 0.632232 1.7441 0.762554 1.70263C0.893292 1.65982 1.03329 1.65379 1.16722 1.68521C1.30115 1.71662 1.42386 1.78427 1.52193 1.88075C1.55005 1.91825 4.67193 4.99325 8.48755 5.987V5.41513C8.49124 4.82048 8.61201 4.23238 8.84298 3.68442C9.07395 3.13645 9.41058 2.63934 9.83367 2.22147C10.2568 1.80361 10.758 1.47317 11.3088 1.24902C11.8596 1.02488 12.4492 0.911422 13.0438 0.915127C13.8243 0.926258 14.5885 1.13936 15.2621 1.53367C15.9358 1.92798 16.4957 2.49005 16.8876 3.16513H19.7376C19.8856 3.16466 20.0305 3.20804 20.154 3.28979C20.2774 3.37154 20.3739 3.488 20.4313 3.6245C20.4853 3.76304 20.499 3.91404 20.4708 4.06003C20.4426 4.20603 20.3737 4.34106 20.2719 4.4495Z" fill="white"/>
</svg>
